<svg width="266" height="266" viewBox="0 0 266 266" fill="none" xmlns="http://www.w3.org/2000/svg">
<path d="M205.188 230H78C43.7754 230 23 230 23 230V76.9219C23 66.0687 23 36 23 36C23 36 57.0985 36 69.4062 36H196.594C208.901 36 243 36 243 36C243 36 243 66.0687 243 76.9219V230C243 230 222.225 230 205.188 230Z" fill="url(#paint0_linear)"/>
<path d="M215.48 0.51001H133.06V265.51H215.48C228.741 265.51 241.459 260.242 250.835 250.865C260.212 241.489 265.48 228.771 265.48 215.51V50.51C265.48 37.2492 260.212 24.5315 250.835 15.1547C241.459 5.77785 228.741 0.51001 215.48 0.51001Z" fill="#384A72"/>
<path d="M215.48 0.51001H50.48C37.2191 0.51001 24.5015 5.77785 15.1246 15.1547C5.74782 24.5315 0.47998 37.2492 0.47998 50.51V215.51C0.47998 228.771 5.74782 241.489 15.1246 250.865C24.5015 260.242 37.2191 265.51 50.48 265.51H215.48C228.741 265.51 241.458 260.242 250.835 250.865C260.212 241.489 265.48 228.771 265.48 215.51V50.51C265.48 37.2492 260.212 24.5315 250.835 15.1547C241.458 5.77785 228.741 0.51001 215.48 0.51001ZM222.21 121.51C219.807 128.136 215.981 134.154 211 139.14L134.83 214.81C134.392 215.24 133.803 215.481 133.19 215.481C132.577 215.481 131.988 215.24 131.55 214.81L58.12 141.86C56.1875 140.226 54.3885 138.44 52.74 136.52C48.8335 131.987 45.8022 126.769 43.8 121.13C39.6732 109.425 40.2268 96.5778 45.3452 85.2709C50.4636 73.9639 59.7513 65.0708 71.2696 60.4477C82.7879 55.8247 95.6468 55.8289 107.162 60.4596C118.677 65.0904 127.959 73.9897 133.07 85.3C138.191 73.9571 147.506 65.0383 159.061 60.4146C170.615 55.791 183.512 55.8218 195.044 60.5008C206.576 65.1797 215.849 74.143 220.915 85.5103C225.982 96.8776 226.45 109.765 222.22 121.47L222.21 121.51Z" fill="white"/>
<defs>
<linearGradient id="paint0_linear" x1="36.8316" y1="47.7764" x2="206.068" y2="239.69" gradientUnits="userSpaceOnUse">
<stop stop-color="#5C57C0"/>
<stop offset="1" stop-color="#5C95C0"/>
</linearGradient>
</defs>
</svg>
